<?xml version="1.0" encoding="UTF-8" standalone="no"?>
<!-- Created with Inkscape (http://www.inkscape.org/) -->

<svg
   xmlns:dc="http://purl.org/dc/elements/1.1/"
   xmlns:cc="http://creativecommons.org/ns#"
   xmlns:rdf="http://www.w3.org/1999/02/22-rdf-syntax-ns#"
   xmlns:svg="http://www.w3.org/2000/svg"
   xmlns="http://www.w3.org/2000/svg"
   xmlns:xlink="http://www.w3.org/1999/xlink"
   xmlns:sodipodi="http://sodipodi.sourceforge.net/DTD/sodipodi-0.dtd"
   xmlns:inkscape="http://www.inkscape.org/namespaces/inkscape"
   width="396.875mm"
   height="135.46666mm"
   viewBox="0 0 396.875 135.46666"
   version="1.1"
   id="svg3968"
   inkscape:version="0.92.4 (5da689c313, 2019-01-14)"
   sodipodi:docname="konpeti.svg"
   inkscape:export-filename="./konpeti.png"
   inkscape:export-xdpi="96"
   inkscape:export-ydpi="96">
  <defs
     id="defs3962">
    <linearGradient
       inkscape:collect="always"
       xlink:href="#linearGradient7702"
       id="linearGradient4131"
       gradientUnits="userSpaceOnUse"
       gradientTransform="matrix(0.26157041,0,0,0.26157041,-168.87468,-14.091434)"
       x1="1149.5"
       y1="231.17"
       x2="1154.8"
       y2="299.48001" />
    <linearGradient
       id="linearGradient7702"
       y2="299.48001"
       gradientUnits="userSpaceOnUse"
       x2="1154.8"
       gradientTransform="matrix(0.26157041,0,0,0.26157041,-168.87468,-14.091434)"
       y1="231.17"
       x1="1149.5">
      <stop
         id="stop3552"
         stop-color="#b392e2"
         offset="0" />
      <stop
         id="stop3554"
         stop-color="#6894d6"
         offset="1" />
    </linearGradient>
  </defs>
  <sodipodi:namedview
     id="base"
     pagecolor="#ffffff"
     bordercolor="#666666"
     borderopacity="1.0"
     inkscape:pageopacity="0.0"
     inkscape:pageshadow="2"
     inkscape:zoom="0.35"
     inkscape:cx="400"
     inkscape:cy="560"
     inkscape:document-units="mm"
     inkscape:current-layer="layer1"
     showgrid="false" />
  <metadata
     id="metadata3965">
    <rdf:RDF>
      <cc:Work
         rdf:about="">
        <dc:format>image/svg+xml</dc:format>
        <dc:type
           rdf:resource="http://purl.org/dc/dcmitype/StillImage" />
        <dc:title></dc:title>
      </cc:Work>
    </rdf:RDF>
  </metadata>
  <g
     inkscape:label="Layer 1"
     inkscape:groupmode="layer"
     id="layer1"
     transform="translate(377.9762,-28.485722)">
    <rect
       style="opacity:1;vector-effect:none;fill:none;fill-opacity:1;stroke:none;stroke-width:0.43353835;stroke-linecap:round;stroke-linejoin:miter;stroke-miterlimit:4;stroke-dasharray:none;stroke-dashoffset:0;stroke-opacity:1;paint-order:fill markers stroke"
       id="rect4513"
       width="396.875"
       height="135.46666"
       x="-377.9762"
       y="28.485722" />
    <g
       id="g1366"
       transform="matrix(4.4246679,0,0,4.4246679,-766.19399,-143.66163)">
      <g
         aria-label="Konferensi Pekerja Teknologi Informasi"
         style="color:#000000;font-style:normal;font-variant:normal;font-weight:normal;font-stretch:normal;font-size:3.89574313px;line-height:125%;font-family:'Ubuntu Medium';text-align:start;writing-mode:lr-tb;text-anchor:start;fill:#6080d2;fill-opacity:1;fill-rule:nonzero;stroke-width:0.26458332;enable-background:accumulate"
         id="text5480">
        <path
           d="m 89.88448,60.456298 h 0.732354 v 1.036709 l 1.055731,-1.036709 h 0.850292 l -1.367695,1.344869 1.508459,1.495143 H 91.746752 L 90.616834,62.177806 V 63.29631 H 89.88448 Z"
           style="font-style:normal;font-variant:normal;font-weight:bold;font-stretch:normal;font-size:3.89574313px;line-height:125%;font-family:'Ubuntu Medium';text-align:start;writing-mode:lr-tb;text-anchor:start;fill:#6080d2;fill-opacity:1;stroke-width:0.26458332"
           id="path4554" />
        <path
           d="m 93.818268,61.601434 q -0.226364,0 -0.346204,0.163591 -0.117938,0.161688 -0.117938,0.467945 0,0.306258 0.117938,0.469848 0.11984,0.161689 0.346204,0.161689 0.222559,0 0.340497,-0.161689 0.117937,-0.16359 0.117937,-0.469848 0,-0.306257 -0.117937,-0.467945 -0.117938,-0.163591 -0.340497,-0.163591 z m 0,-0.486968 q 0.549741,0 0.8579,0.296746 0.310062,0.296746 0.310062,0.821758 0,0.525013 -0.310062,0.821759 -0.308159,0.296746 -0.8579,0.296746 -0.551644,0 -0.863608,-0.296746 -0.310061,-0.296746 -0.310061,-0.821759 0,-0.525012 0.310061,-0.821758 0.311964,-0.296746 0.863608,-0.296746 z"
           style="font-style:normal;font-variant:normal;font-weight:bold;font-stretch:normal;font-size:3.89574313px;line-height:125%;font-family:'Ubuntu Medium';text-align:start;writing-mode:lr-tb;text-anchor:start;fill:#6080d2;fill-opacity:1;stroke-width:0.26458332"
           id="path4556" />
        <path
           d="m 97.622704,61.998998 v 1.297312 h -0.684799 v -0.211146 -0.781812 q 0,-0.275821 -0.01332,-0.380443 -0.01141,-0.104622 -0.04185,-0.15408 -0.03995,-0.06658 -0.108426,-0.10272 -0.06848,-0.03804 -0.155982,-0.03804 -0.213049,0 -0.334791,0.165493 -0.121742,0.163591 -0.121742,0.45463 V 63.29631 H 95.480806 V 61.165826 H 96.1618 v 0.311964 q 0.15408,-0.186418 0.327182,-0.27392 0.173102,-0.0894 0.382346,-0.0894 0.36903,0 0.559252,0.226364 0.192124,0.226364 0.192124,0.658168 z"
           style="font-style:normal;font-variant:normal;font-weight:bold;font-stretch:normal;font-size:3.89574313px;line-height:125%;font-family:'Ubuntu Medium';text-align:start;writing-mode:lr-tb;text-anchor:start;fill:#6080d2;fill-opacity:1;stroke-width:0.26458332"
           id="path4558" />
        <path
           d="m 99.656176,60.336459 v 0.447021 h -0.37664 q -0.144568,0 -0.201635,0.05326 -0.05707,0.05136 -0.05707,0.180711 v 0.148373 h 0.582079 v 0.486968 h -0.582079 v 1.643516 h -0.680994 v -1.643516 h -0.338595 v -0.486968 h 0.338595 v -0.148373 q 0,-0.348106 0.194026,-0.513599 0.194026,-0.167395 0.601101,-0.167395 z"
           style="font-style:normal;font-variant:normal;font-weight:bold;font-stretch:normal;font-size:3.89574313px;line-height:125%;font-family:'Ubuntu Medium';text-align:start;writing-mode:lr-tb;text-anchor:start;fill:#6080d2;fill-opacity:1;stroke-width:0.26458332"
           id="path4560" />
        <path
           d="m 102.0758,62.225362 v 0.194026 h -1.59216 q 0.0247,0.239679 0.1731,0.359519 0.14838,0.11984 0.41469,0.11984 0.21495,0 0.43941,-0.06277 0.22636,-0.06468 0.46414,-0.194027 v 0.525013 q -0.24158,0.09131 -0.48316,0.136959 -0.24159,0.04756 -0.48317,0.04756 -0.57827,0 -0.89975,-0.292942 -0.319569,-0.294844 -0.319569,-0.825563 0,-0.521207 0.313869,-0.819856 0.31577,-0.298648 0.86741,-0.298648 0.50218,0 0.80273,0.302453 0.30246,0.302452 0.30246,0.808443 z m -0.70002,-0.226364 q 0,-0.194027 -0.11413,-0.311964 -0.11223,-0.11984 -0.29485,-0.11984 -0.19783,0 -0.32147,0.112231 -0.12364,0.110329 -0.15408,0.319573 z"
           style="font-style:normal;font-variant:normal;font-weight:bold;font-stretch:normal;font-size:3.89574313px;line-height:125%;font-family:'Ubuntu Medium';text-align:start;writing-mode:lr-tb;text-anchor:start;fill:#6080d2;fill-opacity:1;stroke-width:0.26458332"
           id="path4562" />
        <path
           d="m 104.17394,61.746002 q -0.0894,-0.04185 -0.1788,-0.06087 -0.0875,-0.02093 -0.17691,-0.02093 -0.26251,0 -0.40517,0.169298 -0.14077,0.167395 -0.14077,0.481261 v 0.981544 h -0.68099 v -2.130484 h 0.68099 v 0.350008 q 0.13126,-0.209244 0.30055,-0.304355 0.1712,-0.09701 0.40898,-0.09701 0.0342,0 0.0742,0.0038 0.0399,0.0019 0.11603,0.01141 z"
           style="font-style:normal;font-variant:normal;font-weight:bold;font-stretch:normal;font-size:3.89574313px;line-height:125%;font-family:'Ubuntu Medium';text-align:start;writing-mode:lr-tb;text-anchor:start;fill:#6080d2;fill-opacity:1;stroke-width:0.26458332"
           id="path4564" />
        <path
           d="m 106.63922,62.225362 v 0.194026 h -1.59216 q 0.0247,0.239679 0.1731,0.359519 0.14838,0.11984 0.41469,0.11984 0.21495,0 0.43941,-0.06277 0.22636,-0.06468 0.46414,-0.194027 v 0.525013 q -0.24158,0.09131 -0.48316,0.136959 -0.24158,0.04756 -0.48317,0.04756 -0.57827,0 -0.89975,-0.292942 -0.31957,-0.294844 -0.31957,-0.825563 0,-0.521207 0.31387,-0.819856 0.31577,-0.298648 0.86741,-0.298648 0.50219,0 0.80274,0.302453 0.30245,0.302452 0.30245,0.808443 z m -0.70002,-0.226364 q 0,-0.194027 -0.11413,-0.311964 -0.11223,-0.11984 -0.29484,-0.11984 -0.19784,0 -0.32148,0.112231 -0.12364,0.110329 -0.15408,0.319573 z"
           style="font-style:normal;font-variant:normal;font-weight:bold;font-stretch:normal;font-size:3.89574313px;line-height:125%;font-family:'Ubuntu Medium';text-align:start;writing-mode:lr-tb;text-anchor:start;fill:#6080d2;fill-opacity:1;stroke-width:0.26458332"
           id="path4566" />
        <path
           d="m 109.29662,61.998998 v 1.297312 h -0.6848 v -0.211146 -0.781812 q 0,-0.275821 -0.0133,-0.380443 -0.0114,-0.104622 -0.0418,-0.15408 -0.0399,-0.06658 -0.10843,-0.10272 -0.0685,-0.03804 -0.15598,-0.03804 -0.21305,0 -0.33479,0.165493 -0.12174,0.163591 -0.12174,0.45463 v 1.048122 h -0.681 v -2.130484 h 0.681 v 0.311964 q 0.15407,-0.186418 0.32718,-0.27392 0.1731,-0.0894 0.38234,-0.0894 0.36903,0 0.55925,0.226364 0.19213,0.226364 0.19213,0.658168 z"
           style="font-style:normal;font-variant:normal;font-weight:bold;font-stretch:normal;font-size:3.89574313px;line-height:125%;font-family:'Ubuntu Medium';text-align:start;writing-mode:lr-tb;text-anchor:start;fill:#6080d2;fill-opacity:1;stroke-width:0.26458332"
           id="path4568" />
        <path
           d="m 111.5926,61.232404 v 0.517403 q -0.21876,-0.09131 -0.4223,-0.13696 -0.20353,-0.04565 -0.38424,-0.04565 -0.19403,0 -0.28914,0.04946 -0.0932,0.04755 -0.0932,0.148373 0,0.08179 0.0704,0.125546 0.0723,0.04375 0.2568,0.06468 l 0.11984,0.01712 q 0.52311,0.06658 0.70382,0.218756 0.18071,0.152177 0.18071,0.477456 0,0.340497 -0.25109,0.511697 -0.25109,0.1712 -0.74947,0.1712 -0.21115,0 -0.43751,-0.03424 -0.22447,-0.03234 -0.46224,-0.09892 v -0.517403 q 0.20353,0.09891 0.41658,0.148373 0.21495,0.04946 0.43561,0.04946 0.19973,0 0.30055,-0.05517 0.10082,-0.05516 0.10082,-0.16359 0,-0.09131 -0.0704,-0.135058 -0.0685,-0.04565 -0.27583,-0.07038 l -0.11984,-0.01522 q -0.45463,-0.05707 -0.63724,-0.211146 -0.18261,-0.15408 -0.18261,-0.467946 0,-0.338594 0.23207,-0.502185 0.23207,-0.163591 0.71143,-0.163591 0.18832,0 0.39566,0.02853 0.20734,0.02853 0.45083,0.0894 z"
           style="font-style:normal;font-variant:normal;font-weight:bold;font-stretch:normal;font-size:3.89574313px;line-height:125%;font-family:'Ubuntu Medium';text-align:start;writing-mode:lr-tb;text-anchor:start;fill:#6080d2;fill-opacity:1;stroke-width:0.26458332"
           id="path4570" />
        <path
           d="m 112.24696,61.165826 h 0.68099 v 2.130484 h -0.68099 z m 0,-0.829367 h 0.68099 v 0.555447 h -0.68099 z"
           style="font-style:normal;font-variant:normal;font-weight:bold;font-stretch:normal;font-size:3.89574313px;line-height:125%;font-family:'Ubuntu Medium';text-align:start;writing-mode:lr-tb;text-anchor:start;fill:#6080d2;fill-opacity:1;stroke-width:0.26458332"
           id="path4572" />
        <path
           d="m 114.96903,60.456298 h 1.21552 q 0.54213,0 0.83127,0.241582 0.29104,0.23968 0.29104,0.684799 0,0.447021 -0.29104,0.688603 -0.28914,0.239679 -0.83127,0.239679 h -0.48316 v 0.985349 h -0.73236 z m 0.73236,0.530719 v 0.793225 h 0.40517 q 0.21305,0 0.32908,-0.102719 0.11604,-0.104622 0.11604,-0.294844 0,-0.190222 -0.11604,-0.292942 -0.11603,-0.10272 -0.32908,-0.10272 z"
           style="font-style:normal;font-variant:normal;font-weight:bold;font-stretch:normal;font-size:3.89574313px;line-height:125%;font-family:'Ubuntu Medium';text-align:start;writing-mode:lr-tb;text-anchor:start;fill:#6080d2;fill-opacity:1;stroke-width:0.26458332"
           id="path4574" />
        <path
           d="m 119.92051,62.225362 v 0.194026 h -1.59216 q 0.0247,0.239679 0.1731,0.359519 0.14838,0.11984 0.41469,0.11984 0.21495,0 0.43941,-0.06277 0.22636,-0.06468 0.46414,-0.194027 v 0.525013 q -0.24158,0.09131 -0.48316,0.136959 -0.24158,0.04756 -0.48317,0.04756 -0.57827,0 -0.89975,-0.292942 -0.31957,-0.294844 -0.31957,-0.825563 0,-0.521207 0.31387,-0.819856 0.31577,-0.298648 0.86741,-0.298648 0.50218,0 0.80274,0.302453 0.30245,0.302452 0.30245,0.808443 z m -0.70002,-0.226364 q 0,-0.194027 -0.11413,-0.311964 -0.11223,-0.11984 -0.29485,-0.11984 -0.19783,0 -0.32147,0.112231 -0.12364,0.110329 -0.15408,0.319573 z"
           style="font-style:normal;font-variant:normal;font-weight:bold;font-stretch:normal;font-size:3.89574313px;line-height:125%;font-family:'Ubuntu Medium';text-align:start;writing-mode:lr-tb;text-anchor:start;fill:#6080d2;fill-opacity:1;stroke-width:0.26458332"
           id="path4576" />
        <path
           d="m 120.43601,60.336459 h 0.68099 v 1.611179 l 0.78372,-0.781812 h 0.79132 l -1.04051,0.97774 1.12231,1.152744 h -0.82557 L 121.117,62.407974 v 0.888336 h -0.68099 z"
           style="font-style:normal;font-variant:normal;font-weight:bold;font-stretch:normal;font-size:3.89574313px;line-height:125%;font-family:'Ubuntu Medium';text-align:start;writing-mode:lr-tb;text-anchor:start;fill:#6080d2;fill-opacity:1;stroke-width:0.26458332"
           id="path4578" />
        <path
           d="m 125.04889,62.225362 v 0.194026 h -1.59216 q 0.0247,0.239679 0.1731,0.359519 0.14838,0.11984 0.41469,0.11984 0.21495,0 0.43941,-0.06277 0.22636,-0.06468 0.46414,-0.194027 v 0.525013 q -0.24158,0.09131 -0.48316,0.136959 -0.24158,0.04756 -0.48316,0.04756 -0.57828,0 -0.89975,-0.292942 -0.31958,-0.294844 -0.31958,-0.825563 0,-0.521207 0.31387,-0.819856 0.31577,-0.298648 0.86741,-0.298648 0.50219,0 0.80274,0.302453 0.30245,0.302452 0.30245,0.808443 z m -0.70002,-0.226364 q 0,-0.194027 -0.11413,-0.311964 -0.11223,-0.11984 -0.29484,-0.11984 -0.19783,0 -0.32148,0.112231 -0.12364,0.110329 -0.15408,0.319573 z"
           style="font-style:normal;font-variant:normal;font-weight:bold;font-stretch:normal;font-size:3.89574313px;line-height:125%;font-family:'Ubuntu Medium';text-align:start;writing-mode:lr-tb;text-anchor:start;fill:#6080d2;fill-opacity:1;stroke-width:0.26458332"
           id="path4580" />
        <path
           d="m 127.14703,61.746002 q -0.0894,-0.04185 -0.17881,-0.06087 -0.0875,-0.02093 -0.1769,-0.02093 -0.26251,0 -0.40517,0.169298 -0.14077,0.167395 -0.14077,0.481261 v 0.981544 h -0.68099 v -2.130484 h 0.68099 v 0.350008 q 0.13125,-0.209244 0.30055,-0.304355 0.1712,-0.09701 0.40898,-0.09701 0.0342,0 0.0742,0.0038 0.0399,0.0019 0.11603,0.01141 z"
           style="font-style:normal;font-variant:normal;font-weight:bold;font-stretch:normal;font-size:3.89574313px;line-height:125%;font-family:'Ubuntu Medium';text-align:start;writing-mode:lr-tb;text-anchor:start;fill:#6080d2;fill-opacity:1;stroke-width:0.26458332"
           id="path4582" />
        <path
           d="m 127.48563,61.165826 h 0.68099 v 2.09244 q 0,0.427999 -0.20544,0.652461 -0.20544,0.226364 -0.59539,0.226364 H 127.0291 V 63.69007 h 0.11793 q 0.19403,0 0.26631,-0.0875 0.0723,-0.0875 0.0723,-0.344302 z m 0,-0.829367 h 0.68099 v 0.555447 h -0.68099 z"
           style="font-style:normal;font-variant:normal;font-weight:bold;font-stretch:normal;font-size:3.89574313px;line-height:125%;font-family:'Ubuntu Medium';text-align:start;writing-mode:lr-tb;text-anchor:start;fill:#6080d2;fill-opacity:1;stroke-width:0.26458332"
           id="path4584" />
        <path
           d="m 129.7759,62.337592 q -0.21305,0 -0.32147,0.07229 -0.10653,0.07228 -0.10653,0.213048 0,0.129351 0.0856,0.203537 0.0875,0.07229 0.24158,0.07229 0.19213,0 0.32338,-0.13696 0.13125,-0.138862 0.13125,-0.346204 v -0.07799 z m 1.04051,-0.256799 v 1.215517 h -0.6867 v -0.315768 q -0.13696,0.194026 -0.30816,0.283431 -0.1712,0.0875 -0.41658,0.0875 -0.33099,0 -0.53833,-0.192124 -0.20544,-0.194027 -0.20544,-0.502186 0,-0.374737 0.2568,-0.549741 0.2587,-0.175004 0.81034,-0.175004 h 0.40137 v -0.05326 q 0,-0.161689 -0.12745,-0.235875 -0.12744,-0.07609 -0.39756,-0.07609 -0.21875,0 -0.40707,0.04375 -0.18832,0.04375 -0.35001,0.131253 v -0.519306 q 0.21875,-0.05326 0.43941,-0.07989 0.22066,-0.02853 0.44131,-0.02853 0.57638,0 0.83127,0.228266 0.2568,0.226364 0.2568,0.738061 z"
           style="font-style:normal;font-variant:normal;font-weight:bold;font-stretch:normal;font-size:3.89574313px;line-height:125%;font-family:'Ubuntu Medium';text-align:start;writing-mode:lr-tb;text-anchor:start;fill:#6080d2;fill-opacity:1;stroke-width:0.26458332"
           id="path4586" />
        <path
           d="m 132.49798,60.456298 h 2.61745 v 0.553546 h -0.9416 v 2.286466 h -0.73235 v -2.286466 h -0.9435 z"
           style="font-style:normal;font-variant:normal;font-weight:bold;font-stretch:normal;font-size:3.89574313px;line-height:125%;font-family:'Ubuntu Medium';text-align:start;writing-mode:lr-tb;text-anchor:start;fill:#6080d2;fill-opacity:1;stroke-width:0.26458332"
           id="path4588" />
        <path
           d="m 137.07281,62.225362 v 0.194026 h -1.59216 q 0.0247,0.239679 0.17311,0.359519 0.14837,0.11984 0.41468,0.11984 0.21495,0 0.43941,-0.06277 0.22637,-0.06468 0.46414,-0.194027 v 0.525013 q -0.24158,0.09131 -0.48316,0.136959 -0.24158,0.04756 -0.48316,0.04756 -0.57828,0 -0.89975,-0.292942 -0.31957,-0.294844 -0.31957,-0.825563 0,-0.521207 0.31386,-0.819856 0.31577,-0.298648 0.86741,-0.298648 0.50219,0 0.80274,0.302453 0.30245,0.302452 0.30245,0.808443 z m -0.70001,-0.226364 q 0,-0.194027 -0.11414,-0.311964 -0.11223,-0.11984 -0.29484,-0.11984 -0.19783,0 -0.32148,0.112231 -0.12364,0.110329 -0.15408,0.319573 z"
           style="font-style:normal;font-variant:normal;font-weight:bold;font-stretch:normal;font-size:3.89574313px;line-height:125%;font-family:'Ubuntu Medium';text-align:start;writing-mode:lr-tb;text-anchor:start;fill:#6080d2;fill-opacity:1;stroke-width:0.26458332"
           id="path4590" />
        <path
           d="m 137.58831,60.336459 h 0.68099 v 1.611179 l 0.78372,-0.781812 h 0.79132 l -1.04051,0.97774 1.12231,1.152744 h -0.82557 l -0.83127,-0.888336 v 0.888336 h -0.68099 z"
           style="font-style:normal;font-variant:normal;font-weight:bold;font-stretch:normal;font-size:3.89574313px;line-height:125%;font-family:'Ubuntu Medium';text-align:start;writing-mode:lr-tb;text-anchor:start;fill:#6080d2;fill-opacity:1;stroke-width:0.26458332"
           id="path4592" />
        <path
           d="m 142.32103,61.998998 v 1.297312 h -0.6848 v -0.211146 -0.781812 q 0,-0.275821 -0.0133,-0.380443 -0.0114,-0.104622 -0.0418,-0.15408 -0.04,-0.06658 -0.10843,-0.10272 -0.0685,-0.03804 -0.15598,-0.03804 -0.21305,0 -0.33479,0.165493 -0.12174,0.163591 -0.12174,0.45463 v 1.048122 h -0.681 v -2.130484 h 0.681 v 0.311964 q 0.15408,-0.186418 0.32718,-0.27392 0.1731,-0.0894 0.38234,-0.0894 0.36904,0 0.55926,0.226364 0.19212,0.226364 0.19212,0.658168 z"
           style="font-style:normal;font-variant:normal;font-weight:bold;font-stretch:normal;font-size:3.89574313px;line-height:125%;font-family:'Ubuntu Medium';text-align:start;writing-mode:lr-tb;text-anchor:start;fill:#6080d2;fill-opacity:1;stroke-width:0.26458332"
           id="path4594" />
        <path
           d="m 143.96645,61.601434 q -0.22636,0 -0.3462,0.163591 -0.11794,0.161688 -0.11794,0.467945 0,0.306258 0.11794,0.469848 0.11984,0.161689 0.3462,0.161689 0.22256,0 0.3405,-0.161689 0.11793,-0.16359 0.11793,-0.469848 0,-0.306257 -0.11793,-0.467945 -0.11794,-0.163591 -0.3405,-0.163591 z m 0,-0.486968 q 0.54974,0 0.8579,0.296746 0.31006,0.296746 0.31006,0.821758 0,0.525013 -0.31006,0.821759 -0.30816,0.296746 -0.8579,0.296746 -0.55164,0 -0.86361,-0.296746 -0.31006,-0.296746 -0.31006,-0.821759 0,-0.525012 0.31006,-0.821758 0.31197,-0.296746 0.86361,-0.296746 z"
           style="font-style:normal;font-variant:normal;font-weight:bold;font-stretch:normal;font-size:3.89574313px;line-height:125%;font-family:'Ubuntu Medium';text-align:start;writing-mode:lr-tb;text-anchor:start;fill:#6080d2;fill-opacity:1;stroke-width:0.26458332"
           id="path4596" />
        <path
           d="m 145.62899,60.336459 h 0.68099 v 2.959851 h -0.68099 z"
           style="font-style:normal;font-variant:normal;font-weight:bold;font-stretch:normal;font-size:3.89574313px;line-height:125%;font-family:'Ubuntu Medium';text-align:start;writing-mode:lr-tb;text-anchor:start;fill:#6080d2;fill-opacity:1;stroke-width:0.26458332"
           id="path4598" />
        <path
           d="m 147.97823,61.601434 q -0.22636,0 -0.3462,0.163591 -0.11794,0.161688 -0.11794,0.467945 0,0.306258 0.11794,0.469848 0.11984,0.161689 0.3462,0.161689 0.22256,0 0.3405,-0.161689 0.11793,-0.16359 0.11793,-0.469848 0,-0.306257 -0.11793,-0.467945 -0.11794,-0.163591 -0.3405,-0.163591 z m 0,-0.486968 q 0.54974,0 0.8579,0.296746 0.31006,0.296746 0.31006,0.821758 0,0.525013 -0.31006,0.821759 -0.30816,0.296746 -0.8579,0.296746 -0.55164,0 -0.86361,-0.296746 -0.31006,-0.296746 -0.31006,-0.821759 0,-0.525012 0.31006,-0.821758 0.31197,-0.296746 0.86361,-0.296746 z"
           style="font-style:normal;font-variant:normal;font-weight:bold;font-stretch:normal;font-size:3.89574313px;line-height:125%;font-family:'Ubuntu Medium';text-align:start;writing-mode:lr-tb;text-anchor:start;fill:#6080d2;fill-opacity:1;stroke-width:0.26458332"
           id="path4600" />
        <path
           d="m 151.09026,62.934889 q -0.14077,0.186417 -0.31007,0.273919 -0.16929,0.0875 -0.39185,0.0875 -0.38996,0 -0.64486,-0.306257 -0.25489,-0.308159 -0.25489,-0.783714 0,-0.477456 0.25489,-0.781811 0.2549,-0.306258 0.64486,-0.306258 0.22256,0 0.39185,0.0875 0.1693,0.0875 0.31007,0.275822 v -0.315768 h 0.68479 v 1.915534 q 0,0.513599 -0.32528,0.783714 -0.32337,0.272017 -0.93969,0.272017 -0.19973,0 -0.38615,-0.03044 -0.18642,-0.03043 -0.37474,-0.09321 v -0.530719 q 0.17881,0.10272 0.35001,0.152177 0.1712,0.05136 0.3443,0.05136 0.33479,0 0.49077,-0.146471 0.15599,-0.14647 0.15599,-0.458434 z m -0.44893,-1.325846 q -0.21114,0 -0.32908,0.155982 -0.11794,0.155982 -0.11794,0.441314 0,0.292942 0.11413,0.445119 0.11414,0.150276 0.33289,0.150276 0.21305,0 0.33099,-0.155982 0.11794,-0.155982 0.11794,-0.439413 0,-0.285332 -0.11794,-0.441314 -0.11794,-0.155982 -0.33099,-0.155982 z"
           style="font-style:normal;font-variant:normal;font-weight:bold;font-stretch:normal;font-size:3.89574313px;line-height:125%;font-family:'Ubuntu Medium';text-align:start;writing-mode:lr-tb;text-anchor:start;fill:#6080d2;fill-opacity:1;stroke-width:0.26458332"
           id="path4602" />
        <path
           d="m 152.42942,61.165826 h 0.68099 v 2.130484 h -0.68099 z m 0,-0.829367 h 0.68099 v 0.555447 h -0.68099 z"
           style="font-style:normal;font-variant:normal;font-weight:bold;font-stretch:normal;font-size:3.89574313px;line-height:125%;font-family:'Ubuntu Medium';text-align:start;writing-mode:lr-tb;text-anchor:start;fill:#6080d2;fill-opacity:1;stroke-width:0.26458332"
           id="path4604" />
        <path
           d="m 155.15149,60.456298 h 0.73236 v 2.840012 h -0.73236 z"
           style="font-style:normal;font-variant:normal;font-weight:bold;font-stretch:normal;font-size:3.89574313px;line-height:125%;font-family:'Ubuntu Medium';text-align:start;writing-mode:lr-tb;text-anchor:start;fill:#6080d2;fill-opacity:1;stroke-width:0.26458332"
           id="path4606" />
        <path
           d="m 158.71244,61.998998 v 1.297312 h -0.6848 v -0.211146 -0.781812 q 0,-0.275821 -0.0133,-0.380443 -0.0114,-0.104622 -0.0419,-0.15408 -0.0399,-0.06658 -0.10843,-0.10272 -0.0685,-0.03804 -0.15598,-0.03804 -0.21305,0 -0.33479,0.165493 -0.12174,0.163591 -0.12174,0.45463 v 1.048122 h -0.681 v -2.130484 h 0.681 v 0.311964 q 0.15408,-0.186418 0.32718,-0.27392 0.1731,-0.0894 0.38235,-0.0894 0.36903,0 0.55925,0.226364 0.19212,0.226364 0.19212,0.658168 z"
           style="font-style:normal;font-variant:normal;font-weight:bold;font-stretch:normal;font-size:3.89574313px;line-height:125%;font-family:'Ubuntu Medium';text-align:start;writing-mode:lr-tb;text-anchor:start;fill:#6080d2;fill-opacity:1;stroke-width:0.26458332"
           id="path4608" />
        <path
           d="m 160.74592,60.336459 v 0.447021 h -0.37664 q -0.14457,0 -0.20164,0.05326 -0.0571,0.05136 -0.0571,0.180711 v 0.148373 h 0.58207 v 0.486968 h -0.58207 v 1.643516 h -0.681 v -1.643516 h -0.33859 v -0.486968 h 0.33859 v -0.148373 q 0,-0.348106 0.19403,-0.513599 0.19402,-0.167395 0.6011,-0.167395 z"
           style="font-style:normal;font-variant:normal;font-weight:bold;font-stretch:normal;font-size:3.89574313px;line-height:125%;font-family:'Ubuntu Medium';text-align:start;writing-mode:lr-tb;text-anchor:start;fill:#6080d2;fill-opacity:1;stroke-width:0.26458332"
           id="path4610" />
        <path
           d="m 162.05274,61.601434 q -0.22636,0 -0.3462,0.163591 -0.11794,0.161688 -0.11794,0.467945 0,0.306258 0.11794,0.469848 0.11984,0.161689 0.3462,0.161689 0.22256,0 0.3405,-0.161689 0.11794,-0.16359 0.11794,-0.469848 0,-0.306257 -0.11794,-0.467945 -0.11794,-0.163591 -0.3405,-0.163591 z m 0,-0.486968 q 0.54974,0 0.8579,0.296746 0.31006,0.296746 0.31006,0.821758 0,0.525013 -0.31006,0.821759 -0.30816,0.296746 -0.8579,0.296746 -0.55164,0 -0.86361,-0.296746 -0.31006,-0.296746 -0.31006,-0.821759 0,-0.525012 0.31006,-0.821758 0.31197,-0.296746 0.86361,-0.296746 z"
           style="font-style:normal;font-variant:normal;font-weight:bold;font-stretch:normal;font-size:3.89574313px;line-height:125%;font-family:'Ubuntu Medium';text-align:start;writing-mode:lr-tb;text-anchor:start;fill:#6080d2;fill-opacity:1;stroke-width:0.26458332"
           id="path4612" />
        <path
           d="m 165.29793,61.746002 q -0.0894,-0.04185 -0.17881,-0.06087 -0.0875,-0.02093 -0.17691,-0.02093 -0.2625,0 -0.40517,0.169298 -0.14076,0.167395 -0.14076,0.481261 v 0.981544 h -0.681 v -2.130484 h 0.681 v 0.350008 q 0.13125,-0.209244 0.30055,-0.304355 0.1712,-0.09701 0.40897,-0.09701 0.0342,0 0.0742,0.0038 0.04,0.0019 0.11603,0.01141 z"
           style="font-style:normal;font-variant:normal;font-weight:bold;font-stretch:normal;font-size:3.89574313px;line-height:125%;font-family:'Ubuntu Medium';text-align:start;writing-mode:lr-tb;text-anchor:start;fill:#6080d2;fill-opacity:1;stroke-width:0.26458332"
           id="path4614" />
        <path
           d="m 167.61103,61.519639 q 0.12935,-0.197831 0.30625,-0.300551 0.17881,-0.104622 0.39186,-0.104622 0.36713,0 0.55925,0.226364 0.19213,0.226364 0.19213,0.658168 v 1.297312 h -0.6848 v -1.110895 q 0.002,-0.02473 0.002,-0.05136 0.002,-0.02663 0.002,-0.07609 0,-0.226364 -0.0666,-0.327181 -0.0666,-0.10272 -0.21495,-0.10272 -0.19402,0 -0.30055,0.159786 -0.10462,0.159787 -0.10842,0.462239 v 1.04622 h -0.6848 v -1.110895 q 0,-0.353813 -0.0609,-0.45463 -0.0609,-0.10272 -0.21686,-0.10272 -0.19592,0 -0.30245,0.161689 -0.10652,0.159786 -0.10652,0.458434 v 1.048122 h -0.6848 v -2.130484 h 0.6848 v 0.311964 q 0.12554,-0.180711 0.28723,-0.272018 0.16359,-0.09131 0.35952,-0.09131 0.22066,0 0.38996,0.106524 0.16929,0.106524 0.2568,0.298649 z"
           style="font-style:normal;font-variant:normal;font-weight:bold;font-stretch:normal;font-size:3.89574313px;line-height:125%;font-family:'Ubuntu Medium';text-align:start;writing-mode:lr-tb;text-anchor:start;fill:#6080d2;fill-opacity:1;stroke-width:0.26458332"
           id="path4616" />
        <path
           d="m 170.65077,62.337592 q -0.21305,0 -0.32147,0.07229 -0.10653,0.07228 -0.10653,0.213048 0,0.129351 0.0856,0.203537 0.0875,0.07229 0.24158,0.07229 0.19213,0 0.32338,-0.13696 0.13125,-0.138862 0.13125,-0.346204 v -0.07799 z m 1.04051,-0.256799 v 1.215517 h -0.6867 v -0.315768 q -0.13696,0.194026 -0.30816,0.283431 -0.1712,0.0875 -0.41658,0.0875 -0.33099,0 -0.53833,-0.192124 -0.20544,-0.194027 -0.20544,-0.502186 0,-0.374737 0.2568,-0.549741 0.2587,-0.175004 0.81034,-0.175004 h 0.40137 v -0.05326 q 0,-0.161689 -0.12745,-0.235875 -0.12744,-0.07609 -0.39756,-0.07609 -0.21875,0 -0.40707,0.04375 -0.18832,0.04375 -0.35001,0.131253 v -0.519306 q 0.21875,-0.05326 0.43941,-0.07989 0.22066,-0.02853 0.44131,-0.02853 0.57638,0 0.83127,0.228266 0.2568,0.226364 0.2568,0.738061 z"
           style="font-style:normal;font-variant:normal;font-weight:bold;font-stretch:normal;font-size:3.89574313px;line-height:125%;font-family:'Ubuntu Medium';text-align:start;writing-mode:lr-tb;text-anchor:start;fill:#6080d2;fill-opacity:1;stroke-width:0.26458332"
           id="path4618" />
        <path
           d="m 173.98916,61.232404 v 0.517403 q -0.21876,-0.09131 -0.42229,-0.13696 -0.20354,-0.04565 -0.38425,-0.04565 -0.19403,0 -0.28914,0.04946 -0.0932,0.04755 -0.0932,0.148373 0,0.08179 0.0704,0.125546 0.0723,0.04375 0.2568,0.06468 l 0.11984,0.01712 q 0.52311,0.06658 0.70382,0.218756 0.18071,0.152177 0.18071,0.477456 0,0.340497 -0.25109,0.511697 -0.25109,0.1712 -0.74947,0.1712 -0.21115,0 -0.43751,-0.03424 -0.22446,-0.03234 -0.46224,-0.09892 v -0.517403 q 0.20354,0.09891 0.41658,0.148373 0.21496,0.04946 0.43561,0.04946 0.19974,0 0.30055,-0.05517 0.10082,-0.05516 0.10082,-0.16359 0,-0.09131 -0.0704,-0.135058 -0.0685,-0.04565 -0.27582,-0.07038 l -0.11984,-0.01522 q -0.45463,-0.05707 -0.63725,-0.211146 -0.18261,-0.15408 -0.18261,-0.467946 0,-0.338594 0.23207,-0.502185 0.23207,-0.163591 0.71143,-0.163591 0.18832,0 0.39566,0.02853 0.20734,0.02853 0.45083,0.0894 z"
           style="font-style:normal;font-variant:normal;font-weight:bold;font-stretch:normal;font-size:3.89574313px;line-height:125%;font-family:'Ubuntu Medium';text-align:start;writing-mode:lr-tb;text-anchor:start;fill:#6080d2;fill-opacity:1;stroke-width:0.26458332"
           id="path4620" />
        <path
           d="m 174.64353,61.165826 h 0.68099 v 2.130484 h -0.68099 z m 0,-0.829367 h 0.68099 v 0.555447 h -0.68099 z"
           style="font-style:normal;font-variant:normal;font-weight:bold;font-stretch:normal;font-size:3.89574313px;line-height:125%;font-family:'Ubuntu Medium';text-align:start;writing-mode:lr-tb;text-anchor:start;fill:#6080d2;fill-opacity:1;stroke-width:0.26458332"
           id="path4622" />
      </g>
      <path
         d="m 89.85032,44.295548 v 1.911632 l 1.522247,0.309767 v 10.106841 l -1.522247,0.309755 v 1.893956 h 6.150959 v -1.893956 l -1.416045,-0.309755 v -1.929344 l 2.000187,-1.982434 2.982488,4.097629 -0.009,0.0085 -1.407173,0.115048 v 1.893943 h 6.584574 v -1.893943 l -1.46027,-0.247809 -4.557938,-6.097922 4.124308,-4.106643 1.36292,-0.274354 v -1.911632 h -6.372104 v 1.911632 l 1.531087,0.106179 -0.009,0.03535 -4.77008,4.814438 v -4.646324 l 1.416046,-0.309755 V 44.294722 H 89.85032 Z m 40.10852,0 v 1.911632 l 1.53109,0.309767 v 10.106841 l -1.53109,0.309755 v 1.893956 h 6.27471 v -1.893956 l -1.53112,-0.309755 v -2.885154 h 2.24798 c 1.13755,0 2.11883,-0.191597 2.9471,-0.584109 0.82827,-0.392524 1.46256,-0.940939 1.91163,-1.646134 0.44904,-0.705195 0.67264,-1.533358 0.67264,-2.478052 0,-0.944669 -0.2236,-1.772869 -0.67264,-2.478064 -0.44907,-0.70517 -1.08336,-1.255809 -1.91163,-1.654966 -0.82827,-0.399157 -1.80955,-0.601797 -2.9471,-0.601822 h -6.99151 z m 23.93076,0 v 4.133006 h 2.41612 l 0.13268,-1.655003 h 2.44268 v 9.850347 l -1.5399,0.309755 v 1.893943 h 6.29239 v -1.893943 l -1.53995,-0.309755 v -9.850347 h 2.4515 l 0.13279,1.655003 h 2.43377 V 44.291697 H 153.8895 Z m 15.03635,0 v 1.911632 l 1.53105,0.309767 v 10.106841 l -1.53105,0.309755 v 1.893956 h 6.25703 v -1.893956 l -1.52221,-0.309755 V 46.516947 l 1.52221,-0.309767 v -1.911632 z m -34.22307,2.460363 h 2.24798 c 0.76501,1.3e-5 1.34211,0.213647 1.73463,0.646043 0.39249,0.432432 0.5841,0.980885 0.5841,1.646134 0,0.65196 -0.19161,1.186088 -0.5841,1.601889 -0.39252,0.415813 -0.96962,0.628379 -1.73463,0.628379 h -2.24798 v -4.522578 z m -23.95743,1.079727 c -1.08442,1.2e-5 -2.01613,0.230157 -2.7878,0.699144 -0.77173,0.469037 -1.36647,1.113257 -1.77891,1.938189 -0.41249,0.82492 -0.61066,1.780863 -0.61066,2.858609 v 0.194695 c 0,1.091049 0.19817,2.056894 0.61066,2.885166 0.41244,0.828273 1.01272,1.46699 1.78776,1.929345 0.77501,0.462342 1.70562,0.699144 2.79664,0.699144 1.07773,0 2.00172,-0.233473 2.77008,-0.699144 0.76841,-0.465696 1.3576,-1.109952 1.77004,-1.938189 0.41249,-0.828236 0.61949,-1.79193 0.61953,-2.876322 V 53.33158 c -4e-5,-1.084391 -0.20704,-2.042521 -0.61953,-2.867453 -0.41244,-0.824932 -1.00163,-1.472493 -1.77004,-1.938177 -0.76836,-0.465695 -1.69676,-0.690312 -2.78777,-0.690312 z m 13.59377,0 c -0.56721,0.03317 -1.086,0.186506 -1.5488,0.451348 -0.52892,0.302708 -0.96833,0.728921 -1.32756,1.274421 l -0.12391,-1.531074 h -4.53994 v 1.902787 l 1.53105,0.309755 v 6.381108 l -1.32754,0.309755 v 1.893943 h 5.56691 v -1.893943 l -1.0355,-0.309755 v -5.460517 c 0.19293,-0.279408 0.42642,-0.490831 0.69918,-0.637211 0.27277,-0.146355 0.59211,-0.221252 0.96466,-0.221264 0.4923,1.2e-5 0.87002,0.134365 1.13283,0.407103 0.26277,0.272762 0.38942,0.737522 0.38942,1.389493 v 4.522578 l -1.13283,0.309755 v 1.893943 h 5.67298 V 56.93392 l -1.31871,-0.309755 v -4.522578 c 0,-1.476891 -0.29846,-2.55392 -0.89384,-3.239094 -0.59546,-0.685234 -1.41586,-1.026588 -2.46035,-1.026624 -0.0831,0 -0.1668,-0.0049 -0.2478,0 z m 24.02815,0 c -1.03117,-0.0061 -1.91665,0.223499 -2.65505,0.699144 -0.73847,0.475694 -1.3068,1.135368 -1.69924,1.973602 -0.3925,0.838235 -0.59297,1.800775 -0.59297,2.885167 v 0.371701 c 0,1.011195 0.21696,1.922019 0.64605,2.717016 0.42908,0.79501 1.03598,1.420509 1.81433,1.876243 0.77832,0.455697 1.69241,0.681468 2.74354,0.681468 0.86484,0 1.64233,-0.121122 2.32759,-0.353988 0.68517,-0.232842 1.26009,-0.521373 1.72578,-0.867331 l -0.78767,-1.955889 c -0.46569,0.246156 -0.92268,0.428957 -1.37178,0.548719 -0.44902,0.119786 -0.92371,0.185863 -1.41601,0.185863 -0.48566,0 -0.89423,-0.09136 -1.2302,-0.274366 -0.33596,-0.182947 -0.6014,-0.436247 -0.7876,-0.752247 -0.18634,-0.315999 -0.29865,-0.673923 -0.34523,-1.079726 l 0.008,-0.07083 h 6.15096 V 52.72096 c 0,-1.044471 -0.1817,-1.926586 -0.531,-2.655046 -0.34928,-0.728471 -0.85913,-1.284614 -1.53105,-1.663847 -0.6719,-0.379185 -1.49126,-0.566396 -2.4692,-0.566396 z m 0.0619,2.345303 c 0.36592,1.2e-5 0.66556,0.06828 0.88504,0.221264 0.21953,0.153013 0.37814,0.374374 0.4779,0.663755 0.0997,0.289406 0.15044,0.638535 0.15044,1.044313 v 0.265498 h -3.17719 l -0.0355,-0.05309 c 0.0466,-0.41246 0.12474,-0.78359 0.24782,-1.106271 0.12305,-0.322657 0.30366,-0.574827 0.53985,-0.761127 0.23616,-0.186264 0.53901,-0.274342 0.91155,-0.274354 z m -37.68491,0.106179 c 0.47234,1.3e-5 0.85225,0.124439 1.14166,0.380546 0.28942,0.256143 0.50083,0.61516 0.63721,1.070894 0.1364,0.455721 0.20357,0.987639 0.20357,1.59302 v 0.194707 c 0,0.618696 -0.0672,1.16054 -0.20357,1.619578 -0.13638,0.459038 -0.35113,0.81808 -0.63721,1.070894 -0.28607,0.252802 -0.65828,0.380569 -1.12398,0.380545 -0.47894,0 -0.86109,-0.131084 -1.15048,-0.380545 -0.28942,-0.249473 -0.50419,-0.602988 -0.63721,-1.062026 -0.1331,-0.459038 -0.19472,-1.003068 -0.19472,-1.628446 V 53.33158 c 0,-0.605381 0.0616,-1.137323 0.19472,-1.59302 0.13302,-0.455697 0.34779,-0.814739 0.63721,-1.070894 0.28939,-0.256119 0.66707,-0.380546 1.1328,-0.380546 z"
         style="color:#000000;text-align:start;fill:url(#linearGradient4131);fill-rule:nonzero;stroke-width:0.32143387"
         id="path5484"
         inkscape:connector-curvature="0" />
    </g>
  </g>
</svg>
