<?xml version="1.0" encoding="UTF-8" standalone="no"?>
<!-- Created with Inkscape (http://www.inkscape.org/) -->

<svg
   xmlns:dc="http://purl.org/dc/elements/1.1/"
   xmlns:cc="http://creativecommons.org/ns#"
   xmlns:rdf="http://www.w3.org/1999/02/22-rdf-syntax-ns#"
   xmlns:svg="http://www.w3.org/2000/svg"
   xmlns="http://www.w3.org/2000/svg"
   xmlns:sodipodi="http://sodipodi.sourceforge.net/DTD/sodipodi-0.dtd"
   xmlns:inkscape="http://www.inkscape.org/namespaces/inkscape"
   width="396.875mm"
   height="135.46666mm"
   viewBox="0 0 396.875 135.46666"
   version="1.1"
   id="svg1196"
   inkscape:version="0.92.4 (5da689c313, 2019-01-14)"
   sodipodi:docname="logo-gerak-main.svg"
   inkscape:export-filename="./logo-gerak-main.png"
   inkscape:export-xdpi="96.000008"
   inkscape:export-ydpi="96.000008">
  <defs
     id="defs1190" />
  <sodipodi:namedview
     id="base"
     pagecolor="#ffffff"
     bordercolor="#666666"
     borderopacity="1.0"
     inkscape:pageopacity="0.0"
     inkscape:pageshadow="2"
     inkscape:zoom="0.35"
     inkscape:cx="400"
     inkscape:cy="560"
     inkscape:document-units="mm"
     inkscape:current-layer="layer1"
     showgrid="false" />
  <metadata
     id="metadata1193">
    <rdf:RDF>
      <cc:Work
         rdf:about="">
        <dc:format>image/svg+xml</dc:format>
        <dc:type
           rdf:resource="http://purl.org/dc/dcmitype/StillImage" />
        <dc:title></dc:title>
      </cc:Work>
    </rdf:RDF>
  </metadata>
  <g
     inkscape:label="Layer 1"
     inkscape:groupmode="layer"
     id="layer1"
     transform="translate(-15.119047,-41.336891)">
    <rect
       style="opacity:1;vector-effect:none;fill:none;fill-opacity:1;stroke:none;stroke-width:1.64308369;stroke-linecap:round;stroke-linejoin:miter;stroke-miterlimit:4;stroke-dasharray:none;stroke-dashoffset:0;stroke-opacity:1;paint-order:fill markers stroke"
       id="rect1747"
       width="396.875"
       height="135.46666"
       x="15.119047"
       y="41.336891" />
    <path
       inkscape:connector-curvature="0"
       style="fill:#1a1a1a;stroke-width:3.16433764"
       d="m 28.173836,163.17154 c -0.998829,-0.42769 -1.781914,-1.24159 -2.170739,-2.25617 -0.300613,-0.71831 -0.335421,-4.8541 -0.335421,-37.29171 0,-23.786342 0.07595,-36.75697 0.221505,-37.275921 0.120244,-0.430318 0.537937,-1.094861 0.923984,-1.468254 0.610717,-0.591698 45.82594,-27.555034 49.632636,-29.602362 1.582171,-0.848043 2.544132,-0.930316 3.860489,-0.332255 0.917652,0.414527 47.34165,27.855647 49.33203,29.159387 0.7183,0.468323 1.3037,1.066383 1.58216,1.613813 0.44302,0.863862 0.44302,1.050556 0.38923,38.019502 l -0.057,37.14932 -0.58539,0.88601 c -0.39438,0.56978 -0.92386,1.03294 -1.54105,1.34801 l -0.95561,0.462 H 78.758919 c -47.866933,-0.006 -49.743385,-0.0222 -50.585097,-0.41137 z m 43.082461,-8.15451 c 0.117082,-0.27213 1.243572,-4.3478 2.506147,-9.0595 l 2.290987,-8.56583 -4.404764,-5.00915 c -3.844673,-4.36679 -4.449062,-4.96801 -4.746506,-4.71487 -0.189861,0.15822 -2.866888,2.50932 -5.948954,5.22115 -3.088397,2.71498 -5.933134,5.10409 -6.328677,5.30977 -0.534526,0.23606 -1.111787,0.35989 -1.696089,0.3639 -0.537938,-0.006 -5.015467,-1.10118 -9.954999,-2.43654 -4.936366,-1.33535 -9.031021,-2.43021 -9.103804,-2.43021 -0.183531,0 -0.167709,21.48582 0.01266,21.66619 0.07911,0.0791 8.470931,0.14557 18.6506,0.14557 h 18.505057 l 0.215171,-0.49048 z M 123.59444,122.72182 V 89.936105 L 101.25422,76.702866 C 88.970247,69.424884 78.825381,63.469598 78.711472,63.469598 c -0.11392,0 -8.58801,4.961684 -18.827812,11.027722 l -22.378193,13.249062 -3.756071,2.221362 -0.0066,17.603216 -0.0066,17.60322 1.034742,0.30378 c 0.569575,0.16455 4.635751,1.26573 9.037345,2.43971 l 7.999443,2.13909 5.958451,-5.24331 c 3.275092,-2.88272 6.170456,-5.47431 6.423609,-5.75911 0.506291,-0.55375 8.01526,-13.4864 7.895016,-13.58766 -0.04105,-0.0348 -1.93974,0.0632 -4.218063,0.2215 -2.278315,0.15822 -4.461715,0.29428 -4.841434,0.30062 -0.674003,0.009 -0.879685,0.2753 -4.961683,6.31601 -3.917449,5.7939 -4.341474,6.34134 -5.25913,6.7875 -2.809933,1.36067 -5.986922,-0.86069 -5.721118,-3.99971 0.08861,-1.05373 0.443005,-1.65496 5.119895,-8.65764 3.651645,-5.46165 5.22116,-7.635548 5.736943,-7.932998 0.405036,-0.234153 1.278394,-0.443002 2.047335,-0.493633 9.841092,-0.632869 14.93884,-0.949302 15.252102,-0.949302 0.335427,0 0.316434,-0.123405 -0.174037,-1.088528 -2.211866,-4.366791 -1.218268,-9.891728 2.385915,-13.264883 2.455527,-2.29731 5.031298,-3.221297 8.493082,-3.044126 5.366725,0.272133 9.58478,4.044058 10.51827,9.404422 0.461995,2.632725 0.07912,4.850926 -1.268914,7.391896 -1.727728,3.259264 -5.76859,5.835032 -9.154428,5.835032 -0.579064,0 -1.050553,0.095 -1.050553,0.22151 0,0.20568 4.730683,9.79679 4.949015,10.02779 0.120245,0.12658 0.506302,-0.0886 7.575431,-4.23072 5.21166,-3.0536 5.48697,-3.18649 6.63245,-3.18649 0.8702,0 1.43977,0.14556 2.08845,0.52528 2.24669,1.31636 2.63907,4.64525 0.7468,6.37931 -0.28163,0.25631 -4.32248,2.69918 -8.986717,5.42683 -9.214553,5.3952 -9.50251,5.51545 -11.340988,4.81296 -0.518959,-0.19934 -1.145494,-0.57906 -1.385992,-0.84487 -0.243649,-0.26896 -1.651772,-3.01245 -3.132692,-6.10084 -1.477737,-3.09157 -2.759292,-5.61671 -2.841574,-5.61671 -0.08541,0 -1.632791,2.56628 -3.436458,5.70531 l -3.281425,5.70847 1.27206,1.43344 c 7.056472,7.96464 10.144867,11.58149 10.401185,12.17322 0.167713,0.38604 0.303777,1.07271 0.303777,1.5252 0,0.45251 -1.079043,4.86359 -2.398573,9.80313 -1.31953,4.93634 -2.401734,9.08162 -2.401734,9.21452 0,0.16771 6.281215,0.23733 21.919371,0.23733 h 21.91938 v -32.78569 z m 168.42185,38.11444 c -3.17382,-0.69616 -5.61354,-2.5916 -6.91724,-5.36672 -1.38599,-2.96182 -1.47457,-3.77189 -1.58217,-14.62871 l -0.0981,-9.762 h 6.77169 l 0.0728,9.98033 c 0.0696,9.69867 0.0854,10.00878 0.55058,11.15743 0.65819,1.62015 1.64234,2.57577 3.06943,2.9903 2.42705,0.70566 4.87624,-0.29112 5.82554,-2.37325 0.80375,-1.7657 0.98095,-4.14528 0.98095,-13.29655 v -8.45826 h 6.35399 l -0.0822,10.08793 c -0.0791,9.47083 -0.11077,10.18914 -0.54744,11.75548 -1.54103,5.55341 -5.25277,8.2874 -11.17642,8.22729 -1.07966,-0.0159 -2.15617,-0.12088 -3.21813,-0.31644 z m -141.16428,-14.9135 v -14.87873 l 6.05021,0.0886 c 6.67994,0.10119 7.32862,0.19936 10.27462,1.5885 2.06949,0.97778 4.22756,3.10106 5.20218,5.11991 1.21826,2.52197 1.46825,3.85097 1.47141,7.85069 0.003,4.04086 -0.36073,5.86668 -1.68658,8.38866 -0.95248,1.81949 -3.1865,4.0187 -4.95536,4.87625 -2.76247,1.34484 -4.28135,1.59166 -10.63218,1.72456 l -5.72746,0.12024 v -14.87868 z m 11.59414,8.72088 c 1.5885,-0.59489 2.59793,-1.48723 3.38585,-2.9903 0.95563,-1.8195 1.26574,-3.32256 1.25308,-6.06921 -0.0316,-3.96491 -1.0917,-6.566 -3.27826,-7.95194 -1.18979,-0.75312 -2.48401,-1.07588 -4.6674,-1.15182 l -1.63596,-0.0569 -0.057,9.46453 -0.057,9.46771 1.94608,-0.13923 c 1.07905,-0.076 2.46819,-0.33225 3.11054,-0.57276 z m 13.12885,5.6072 c 0.0696,-0.26895 1.8005,-5.8382 3.84784,-12.37572 l 4.49336,-14.34392 0.76577,-2.45869 4.05036,0.057 4.05035,0.0634 4.54399,14.49899 c 2.49982,7.97731 4.54715,14.62872 4.55348,14.77747 0,0.20568 -0.82905,0.27213 -3.45546,0.27213 h -3.46178 l -0.67084,-2.56314 c -0.37023,-1.40813 -0.78793,-3.02827 -0.92715,-3.59782 l -0.25315,-1.03477 h -9.04369 l -0.93664,3.59785 -0.93664,3.59788 h -6.74638 z m 16.06219,-12.10358 c 0,-0.34489 -2.91436,-11.73334 -3.05042,-11.89155 -0.0791,-0.0918 -0.462,1.23408 -0.85438,2.94282 -0.39238,1.71191 -1.05056,4.36676 -1.45875,5.90147 -0.41137,1.53154 -0.74363,2.87954 -0.74363,2.99663 0,0.25314 6.10401,0.29744 6.10718,0.0506 z m 13.66992,12.45483 c -0.0824,-0.0822 -0.1519,-6.76852 -0.1519,-14.8534 v -14.70466 l 7.25264,0.0854 c 6.62612,0.0791 7.36975,0.12657 8.607,0.53793 2.65805,0.88602 4.60728,2.49982 5.5724,4.60095 0.41136,0.88919 0.47465,1.42395 0.48097,3.97124 0,2.74033 -0.0316,3.03144 -0.57274,4.18323 -0.70881,1.51259 -1.97138,2.91123 -3.39533,3.76557 l -1.06955,0.64552 2.97765,5.24331 c 1.63912,2.88588 3.14852,5.56924 3.35103,5.96162 l 0.36707,0.71197 -3.73393,-0.057 -3.73392,-0.0634 -2.79728,-5.23065 -2.80044,-5.23698 -1.86695,-0.0634 -1.86696,-0.0633 -0.0633,5.30026 -0.057,5.2971 -3.17382,0.0602 c -1.74672,0.0316 -3.24346,-0.006 -3.32572,-0.0917 z m 12.30927,-16.22037 c 2.01569,-0.56011 3.06942,-1.98088 3.06942,-4.13895 0,-1.72457 -0.49048,-2.56632 -1.89861,-3.26876 -0.95564,-0.47466 -1.44295,-0.55061 -3.98074,-0.62655 l -2.88905,-0.0822 v 8.33804 h 2.45553 c 1.34802,-0.003 2.80677,-0.10119 3.24029,-0.22151 z m 15.4578,1.53468 v -14.83757 h 6.76536 l -0.0569,14.77747 -0.0602,14.77743 -3.32256,0.0569 -3.32888,0.0633 v -14.84076 z m 22.83388,14.68253 c -0.0823,-0.0822 -0.1519,-6.76536 -0.1519,-14.85024 v -14.70466 l 7.24947,0.0854 c 6.62614,0.0791 7.36975,0.12657 8.60701,0.53793 2.65171,0.88602 4.61993,2.50932 5.58822,4.61045 0.41136,0.886 0.47465,1.40497 0.47465,3.96174 0,2.72763 -0.0474,3.03775 -0.57591,4.17057 -0.71649,1.51642 -1.84896,2.79815 -3.26559,3.69595 -0.77528,0.49684 -1.05374,0.80058 -0.95881,1.04424 0.0728,0.18986 1.43978,2.65488 3.03778,5.4743 1.59482,2.82575 3.01877,5.35723 3.16116,5.63253 l 0.25316,0.49363 -3.73393,-0.0602 -3.74024,-0.0569 -2.79094,-5.23697 -2.79096,-5.23382 -1.87329,-0.0634 -1.87645,-0.0633 -0.0569,5.30026 -0.0602,5.29711 -3.17382,0.0602 c -1.74673,0.0316 -3.24346,-0.006 -3.32573,-0.095 z m 12.30607,-16.21721 c 2.01569,-0.56328 3.06942,-1.98088 3.06942,-4.13895 0,-1.72457 -0.49047,-2.56948 -1.89858,-3.26876 -0.95566,-0.47466 -1.4398,-0.55061 -3.9776,-0.62655 l -2.88901,-0.0822 v 8.33804 h 2.45236 c 1.34801,-0.003 2.80993,-0.10119 3.24341,-0.22151 z m 45.6994,16.21405 c -0.0791,-0.0791 -0.14557,-6.75586 -0.14557,-14.83442 v -14.69518 l 3.73076,0.0633 3.72755,0.057 2.37963,6.54385 c 1.10362,2.99938 2.15852,6.01643 3.1643,9.05002 0.42722,1.37964 0.86071,2.59475 0.96199,2.69918 0.10119,0.10758 0.29112,-0.23733 0.42717,-0.7626 0.31325,-1.22144 2.87954,-8.77788 4.65473,-13.71425 l 1.3765,-3.8162 3.63897,-0.0602 3.63901,-0.0602 v 29.68463 l -2.9998,-0.0632 -2.9998,-0.057 v -7.08812 c 0,-5.25281 0.11077,-7.92983 0.39238,-10.33157 0.20885,-1.7847 0.33858,-3.28458 0.28796,-3.33205 -0.0474,-0.0506 -0.55692,1.26574 -1.12967,2.91435 -0.56958,1.65496 -2.06948,5.77809 -3.32573,9.16709 l -2.28465,6.16097 h -3.61047 l -2.29103,-6.16097 c -1.25936,-3.38583 -2.70547,-7.43619 -3.21176,-8.99621 -1.38282,-4.24021 -1.49356,-4.15478 -0.84804,0.65503 0.12973,0.95878 0.28478,5.20216 0.34807,9.42972 l 0.11392,7.68934 h -2.93334 c -1.61382,0 -2.99663,-0.0632 -3.07574,-0.14556 z m 30.87442,-0.12658 c 0.0538,-0.15188 2.14226,-6.82548 4.64525,-14.83442 l 4.55032,-14.56226 4.05036,0.057 4.04402,0.0634 4.51552,14.39141 c 2.48399,7.91714 4.51868,14.56859 4.525,14.7806 0,0.35757 -0.25315,0.38288 -3.42381,0.32908 l -3.43648,-0.0633 -0.69614,-2.61376 -0.93666,-3.55038 -0.24049,-0.93031 -4.51234,0.0602 -4.51235,0.057 -0.78476,2.94283 c -0.43352,1.62014 -0.85437,3.21497 -0.93665,3.54406 l -0.14872,0.60123 h -3.39849 c -2.62641,0 -3.37635,-0.0634 -3.30358,-0.27214 z m 14.6952,-18.25191 c -0.85437,-3.35416 -1.61065,-6.02804 -1.68343,-5.94579 -0.076,0.0854 -0.4525,1.52524 -0.83855,3.20547 -0.38606,1.6771 -1.03475,4.3067 -1.44611,5.84141 -0.40819,1.5315 -0.74361,2.83205 -0.74361,2.889 0,0.057 1.40812,0.10445 3.13269,0.10445 h 3.12637 z m 15.13503,3.69279 v -14.82806 h 6.54382 v 11.34096 h 10.25247 v -11.34096 h 6.76218 l -0.0569,14.77429 -0.057,14.77743 -3.32572,0.0602 -3.32571,0.0602 v -12.44535 h -10.25246 v 12.43269 h -6.54069 z M 169.71465,123.3357 c -11.51188,-1.86063 -19.36573,-9.38226 -21.73902,-20.81818 -0.63283,-3.047266 -0.79105,-9.958185 -0.30694,-13.258591 0.59347,-4.251255 2.05856,-8.334138 4.30347,-11.992811 1.58533,-2.572608 5.30343,-6.287544 7.88236,-7.879206 6.23376,-3.838343 14.3756,-5.12623 21.49219,-3.392171 2.93018,0.71514 7.44253,3.202311 10.14489,5.594551 l 1.05688,0.93348 -3.32571,4.069341 -3.32257,4.069309 -1.55052,-1.151788 c -2.96182,-2.20238 -4.30983,-2.794112 -7.22735,-3.183325 -1.23479,-0.183216 -2.48992,-0.182267 -3.72443,0.0032 -8.84749,1.177166 -13.83766,9.081654 -12.95796,20.511245 0.674,8.733576 4.34147,13.840836 11.06569,15.410336 3.48393,0.81324 8.02476,0.45566 10.04677,-0.79108 l 0.71198,-0.44301 -0.0601,-4.85409 -0.0602,-4.85094 -4.63579,-0.0632 -4.63256,-0.057 V 90.951916 h 20.49855 v 26.137444 l -1.77202,1.33852 c -2.75298,2.07264 -6.70838,3.83517 -10.54992,4.69905 -2.19921,0.49676 -8.80315,0.61701 -11.34095,0.20567 z m 35.58616,-0.68666 c -0.0791,-0.0823 -0.14556,-12.79026 -0.14556,-28.244893 V 66.304846 h 35.33298 v 10.689138 h -22.46681 v 11.340958 h 19.19488 v 10.685975 h -19.19172 v 12.869373 h 23.33385 v 10.90431 h -17.95764 c -9.87274,0 -18.02091,-0.0664 -18.09998,-0.14556 z M 249.86416,94.429463 V 66.282695 l 12.70482,0.07595 c 12.24914,0.07278 12.79024,0.09492 15.10336,0.575878 6.56601,1.370191 10.83787,4.525005 12.94215,9.556304 1.39864,3.354201 1.63597,8.809522 0.56325,13.018088 -1.02841,4.028203 -4.29084,8.08172 -7.95515,9.872737 -0.70247,0.341749 -1.27839,0.677158 -1.28471,0.749948 0,0.095 9.37593,16.76151 12.11941,21.51751 l 0.53794,0.92714 -7.1514,-0.006 -7.15458,-0.006 -5.34457,-10.08157 -5.3414,-10.08156 -3.54406,-0.0602 -3.54404,-0.0602 v 20.29292 H 249.86416 V 94.425277 Z m 23.47937,-2.667538 c 3.99023,-1.148655 5.9806,-3.733921 6.01541,-7.796901 0.0316,-3.13586 -0.88602,-4.980703 -3.0441,-6.154641 -2.022,-1.098025 -3.24661,-1.297378 -8.73038,-1.41446 l -5.06928,-0.107585 v 16.024186 l 4.85091,-0.113921 c 3.3447,-0.07597 5.20217,-0.21201 5.98061,-0.436678 z m 25.85265,30.545375 c 0.0538,-0.15191 4.00922,-12.81558 8.79687,-28.137317 l 8.70193,-27.861974 h 7.69567 c 4.23386,0 7.69564,0.03797 7.69564,0.08227 0,0.0443 3.87949,12.486483 8.62282,27.64364 4.74335,15.157181 8.6798,27.782901 8.74941,28.055021 l 0.12657,0.49365 -6.72422,-0.057 -6.72739,-0.057 -1.55053,-5.99959 c -0.85436,-3.29724 -1.61696,-6.26538 -1.69924,-6.60081 l -0.15189,-0.60123 -8.64498,0.057 -8.6481,0.057 -1.67394,6.54386 -1.67393,6.54385 -6.49323,0.057 c -5.15787,0.0443 -6.47423,0 -6.40146,-0.2215 z m 30.84595,-23.447761 c -0.41452,-1.449267 -2.22769,-8.553207 -3.84148,-15.059092 -1.78156,-7.173526 -2.05052,-8.1165 -2.26567,-7.879173 -0.0442,0.05063 -0.7911,3.132663 -1.65813,6.850795 -0.90312,3.864608 -1.85776,7.717 -2.86374,11.556131 -0.70562,2.635898 -1.28468,4.819284 -1.28468,4.850935 0,0.03162 2.70551,0.06016 6.01221,0.06016 5.62302,0 6.00591,-0.02536 5.90149,-0.379713 z M 354.76828,94.44212 V 66.308009 h 12.65103 v 11.559332 c 0,6.357159 0.0728,11.552978 0.16454,11.549804 0.0917,-0.0034 3.92695,-5.205334 8.5279,-11.559296 l 8.36967,-11.54984 h 6.96468 c 5.3161,0 6.9299,0.06013 6.80966,0.256312 -0.0886,0.142395 -3.82885,5.097751 -8.30954,11.011901 -4.48071,5.917315 -8.19562,10.88846 -8.2589,11.049838 -0.0602,0.158217 4.35725,7.812755 9.82207,17.00516 5.46165,9.18925 9.93603,16.76467 9.93603,16.83112 0,0.0633 -3.11687,0.095 -6.92041,0.0633 l -6.91726,-0.0601 -6.7685,-11.71755 c -3.72124,-6.44575 -6.83495,-11.695401 -6.92039,-11.666924 -0.0823,0.02843 -1.58217,1.930264 -3.32256,4.230734 l -3.17699,4.18326 v 15.08123 H 354.77145 V 94.44203 Z"
       id="path539"
       sodipodi:nodetypes="ccscccccccccccccccccccccccsssccccccscccccccccccscccccccscccccssccsccccccsccccscssccccccccccccsccccccccccccccccccccccccccccccccccccccscccccccccccccsccscccccccccccccccccccccccscccccccccccccccccsccccsccccccccccccccccccscccccccsccccccccccccccscccccccccccscccccccccccccccccccscccccsscccccccccccccccccccccccccccccccccccccccccccccccscccccccccccscccccccccccccccccccccccccccccccccssscccccccccccccccccccsscsccssccscccscaccccccccs" />
    <path
       sodipodi:nodetypes="ccscccccccccccccccccccccccsssccccccscccccccccccscccccccscccccssccsccccccsccccscssccccccccccccsccccccccccccccccccccccccccccccccccccccscccccccccccccsccscccccccccccccccccccccccscccccccccccccccccsccccsccccccccccccccccccscccccccsccccccccccccccscccccccccccscccccccccccccccccccscccccsscccccccccccccccccccccccccccccccccccccccccccccccscccccccccccscccccccccccccccccccccccccccccccccssscccccccccccccccccccsscsccssccscccscaccccccccs"
       id="path1768"
       d="m 28.173836,163.17154 c -0.998829,-0.42769 -1.781914,-1.24159 -2.170739,-2.25617 -0.300613,-0.71831 -0.335421,-4.8541 -0.335421,-37.29171 0,-23.786342 0.07595,-36.75697 0.221505,-37.275921 0.120244,-0.430318 0.537937,-1.094861 0.923984,-1.468254 0.610717,-0.591698 45.82594,-27.555034 49.632636,-29.602362 1.582171,-0.848043 2.544132,-0.930316 3.860489,-0.332255 0.917652,0.414527 47.34165,27.855647 49.33203,29.159387 0.7183,0.468323 1.3037,1.066383 1.58216,1.613813 0.44302,0.863862 0.44302,1.050556 0.38923,38.019502 l -0.057,37.14932 -0.58539,0.88601 c -0.39438,0.56978 -0.92386,1.03294 -1.54105,1.34801 l -0.95561,0.462 H 78.758919 c -47.866933,-0.006 -49.743385,-0.0222 -50.585097,-0.41137 z m 43.082461,-8.15451 c 0.117082,-0.27213 1.243572,-4.3478 2.506147,-9.0595 l 2.290987,-8.56583 -4.404764,-5.00915 c -3.844673,-4.36679 -4.449062,-4.96801 -4.746506,-4.71487 -0.189861,0.15822 -2.866888,2.50932 -5.948954,5.22115 -3.088397,2.71498 -5.933134,5.10409 -6.328677,5.30977 -0.534526,0.23606 -1.111787,0.35989 -1.696089,0.3639 -0.537938,-0.006 -5.015467,-1.10118 -9.954999,-2.43654 -4.936366,-1.33535 -9.031021,-2.43021 -9.103804,-2.43021 -0.183531,0 -0.167709,21.48582 0.01266,21.66619 0.07911,0.0791 8.470931,0.14557 18.6506,0.14557 h 18.505057 l 0.215171,-0.49048 z M 123.59444,122.72182 V 89.936105 L 101.25422,76.702866 C 88.970247,69.424884 78.825381,63.469598 78.711472,63.469598 c -0.11392,0 -8.58801,4.961684 -18.827812,11.027722 l -22.378193,13.249062 -3.756071,2.221362 -0.0066,17.603216 -0.0066,17.60322 1.034742,0.30378 c 0.569575,0.16455 4.635751,1.26573 9.037345,2.43971 l 7.999443,2.13909 5.958451,-5.24331 c 3.275092,-2.88272 6.170456,-5.47431 6.423609,-5.75911 0.506291,-0.55375 8.01526,-13.4864 7.895016,-13.58766 -0.04105,-0.0348 -1.93974,0.0632 -4.218063,0.2215 -2.278315,0.15822 -4.461715,0.29428 -4.841434,0.30062 -0.674003,0.009 -0.879685,0.2753 -4.961683,6.31601 -3.917449,5.7939 -4.341474,6.34134 -5.25913,6.7875 -2.809933,1.36067 -5.986922,-0.86069 -5.721118,-3.99971 0.08861,-1.05373 0.443005,-1.65496 5.119895,-8.65764 3.651645,-5.46165 5.22116,-7.635548 5.736943,-7.932998 0.405036,-0.234153 1.278394,-0.443002 2.047335,-0.493633 9.841092,-0.632869 14.93884,-0.949302 15.252102,-0.949302 0.335427,0 0.316434,-0.123405 -0.174037,-1.088528 -2.211866,-4.366791 -1.218268,-9.891728 2.385915,-13.264883 2.455527,-2.29731 5.031298,-3.221297 8.493082,-3.044126 5.366725,0.272133 9.58478,4.044058 10.51827,9.404422 0.461995,2.632725 0.07912,4.850926 -1.268914,7.391896 -1.727728,3.259264 -5.76859,5.835032 -9.154428,5.835032 -0.579064,0 -1.050553,0.095 -1.050553,0.22151 0,0.20568 4.730683,9.79679 4.949015,10.02779 0.120245,0.12658 0.506302,-0.0886 7.575431,-4.23072 5.21166,-3.0536 5.48697,-3.18649 6.63245,-3.18649 0.8702,0 1.43977,0.14556 2.08845,0.52528 2.24669,1.31636 2.63907,4.64525 0.7468,6.37931 -0.28163,0.25631 -4.32248,2.69918 -8.986717,5.42683 -9.214553,5.3952 -9.50251,5.51545 -11.340988,4.81296 -0.518959,-0.19934 -1.145494,-0.57906 -1.385992,-0.84487 -0.243649,-0.26896 -1.651772,-3.01245 -3.132692,-6.10084 -1.477737,-3.09157 -2.759292,-5.61671 -2.841574,-5.61671 -0.08541,0 -1.632791,2.56628 -3.436458,5.70531 l -3.281425,5.70847 1.27206,1.43344 c 7.056472,7.96464 10.144867,11.58149 10.401185,12.17322 0.167713,0.38604 0.303777,1.07271 0.303777,1.5252 0,0.45251 -1.079043,4.86359 -2.398573,9.80313 -1.31953,4.93634 -2.401734,9.08162 -2.401734,9.21452 0,0.16771 6.281215,0.23733 21.919371,0.23733 h 21.91938 v -32.78569 z m 168.42185,38.11444 c -3.17382,-0.69616 -5.61354,-2.5916 -6.91724,-5.36672 -1.38599,-2.96182 -1.47457,-3.77189 -1.58217,-14.62871 l -0.0981,-9.762 h 6.77169 l 0.0728,9.98033 c 0.0696,9.69867 0.0854,10.00878 0.55058,11.15743 0.65819,1.62015 1.64234,2.57577 3.06943,2.9903 2.42705,0.70566 4.87624,-0.29112 5.82554,-2.37325 0.80375,-1.7657 0.98095,-4.14528 0.98095,-13.29655 v -8.45826 h 6.35399 l -0.0822,10.08793 c -0.0791,9.47083 -0.11077,10.18914 -0.54744,11.75548 -1.54103,5.55341 -5.25277,8.2874 -11.17642,8.22729 -1.07966,-0.0159 -2.15617,-0.12088 -3.21813,-0.31644 z m -141.16428,-14.9135 v -14.87873 l 6.05021,0.0886 c 6.67994,0.10119 7.32862,0.19936 10.27462,1.5885 2.06949,0.97778 4.22756,3.10106 5.20218,5.11991 1.21826,2.52197 1.46825,3.85097 1.47141,7.85069 0.003,4.04086 -0.36073,5.86668 -1.68658,8.38866 -0.95248,1.81949 -3.1865,4.0187 -4.95536,4.87625 -2.76247,1.34484 -4.28135,1.59166 -10.63218,1.72456 l -5.72746,0.12024 v -14.87868 z m 11.59414,8.72088 c 1.5885,-0.59489 2.59793,-1.48723 3.38585,-2.9903 0.95563,-1.8195 1.26574,-3.32256 1.25308,-6.06921 -0.0316,-3.96491 -1.0917,-6.566 -3.27826,-7.95194 -1.18979,-0.75312 -2.48401,-1.07588 -4.6674,-1.15182 l -1.63596,-0.0569 -0.057,9.46453 -0.057,9.46771 1.94608,-0.13923 c 1.07905,-0.076 2.46819,-0.33225 3.11054,-0.57276 z m 13.12885,5.6072 c 0.0696,-0.26895 1.8005,-5.8382 3.84784,-12.37572 l 4.49336,-14.34392 0.76577,-2.45869 4.05036,0.057 4.05035,0.0634 4.54399,14.49899 c 2.49982,7.97731 4.54715,14.62872 4.55348,14.77747 0,0.20568 -0.82905,0.27213 -3.45546,0.27213 h -3.46178 l -0.67084,-2.56314 c -0.37023,-1.40813 -0.78793,-3.02827 -0.92715,-3.59782 l -0.25315,-1.03477 h -9.04369 l -0.93664,3.59785 -0.93664,3.59788 h -6.74638 z m 16.06219,-12.10358 c 0,-0.34489 -2.91436,-11.73334 -3.05042,-11.89155 -0.0791,-0.0918 -0.462,1.23408 -0.85438,2.94282 -0.39238,1.71191 -1.05056,4.36676 -1.45875,5.90147 -0.41137,1.53154 -0.74363,2.87954 -0.74363,2.99663 0,0.25314 6.10401,0.29744 6.10718,0.0506 z m 13.66992,12.45483 c -0.0824,-0.0822 -0.1519,-6.76852 -0.1519,-14.8534 v -14.70466 l 7.25264,0.0854 c 6.62612,0.0791 7.36975,0.12657 8.607,0.53793 2.65805,0.88602 4.60728,2.49982 5.5724,4.60095 0.41136,0.88919 0.47465,1.42395 0.48097,3.97124 0,2.74033 -0.0316,3.03144 -0.57274,4.18323 -0.70881,1.51259 -1.97138,2.91123 -3.39533,3.76557 l -1.06955,0.64552 2.97765,5.24331 c 1.63912,2.88588 3.14852,5.56924 3.35103,5.96162 l 0.36707,0.71197 -3.73393,-0.057 -3.73392,-0.0634 -2.79728,-5.23065 -2.80044,-5.23698 -1.86695,-0.0634 -1.86696,-0.0633 -0.0633,5.30026 -0.057,5.2971 -3.17382,0.0602 c -1.74672,0.0316 -3.24346,-0.006 -3.32572,-0.0917 z m 12.30927,-16.22037 c 2.01569,-0.56011 3.06942,-1.98088 3.06942,-4.13895 0,-1.72457 -0.49048,-2.56632 -1.89861,-3.26876 -0.95564,-0.47466 -1.44295,-0.55061 -3.98074,-0.62655 l -2.88905,-0.0822 v 8.33804 h 2.45553 c 1.34802,-0.003 2.80677,-0.10119 3.24029,-0.22151 z m 15.4578,1.53468 v -14.83757 h 6.76536 l -0.0569,14.77747 -0.0602,14.77743 -3.32256,0.0569 -3.32888,0.0633 v -14.84076 z m 22.83388,14.68253 c -0.0823,-0.0822 -0.1519,-6.76536 -0.1519,-14.85024 v -14.70466 l 7.24947,0.0854 c 6.62614,0.0791 7.36975,0.12657 8.60701,0.53793 2.65171,0.88602 4.61993,2.50932 5.58822,4.61045 0.41136,0.886 0.47465,1.40497 0.47465,3.96174 0,2.72763 -0.0474,3.03775 -0.57591,4.17057 -0.71649,1.51642 -1.84896,2.79815 -3.26559,3.69595 -0.77528,0.49684 -1.05374,0.80058 -0.95881,1.04424 0.0728,0.18986 1.43978,2.65488 3.03778,5.4743 1.59482,2.82575 3.01877,5.35723 3.16116,5.63253 l 0.25316,0.49363 -3.73393,-0.0602 -3.74024,-0.0569 -2.79094,-5.23697 -2.79096,-5.23382 -1.87329,-0.0634 -1.87645,-0.0633 -0.0569,5.30026 -0.0602,5.29711 -3.17382,0.0602 c -1.74673,0.0316 -3.24346,-0.006 -3.32573,-0.095 z m 12.30607,-16.21721 c 2.01569,-0.56328 3.06942,-1.98088 3.06942,-4.13895 0,-1.72457 -0.49047,-2.56948 -1.89858,-3.26876 -0.95566,-0.47466 -1.4398,-0.55061 -3.9776,-0.62655 l -2.88901,-0.0822 v 8.33804 h 2.45236 c 1.34801,-0.003 2.80993,-0.10119 3.24341,-0.22151 z m 45.6994,16.21405 c -0.0791,-0.0791 -0.14557,-6.75586 -0.14557,-14.83442 v -14.69518 l 3.73076,0.0633 3.72755,0.057 2.37963,6.54385 c 1.10362,2.99938 2.15852,6.01643 3.1643,9.05002 0.42722,1.37964 0.86071,2.59475 0.96199,2.69918 0.10119,0.10758 0.29112,-0.23733 0.42717,-0.7626 0.31325,-1.22144 2.87954,-8.77788 4.65473,-13.71425 l 1.3765,-3.8162 3.63897,-0.0602 3.63901,-0.0602 v 29.68463 l -2.9998,-0.0632 -2.9998,-0.057 v -7.08812 c 0,-5.25281 0.11077,-7.92983 0.39238,-10.33157 0.20885,-1.7847 0.33858,-3.28458 0.28796,-3.33205 -0.0474,-0.0506 -0.55692,1.26574 -1.12967,2.91435 -0.56958,1.65496 -2.06948,5.77809 -3.32573,9.16709 l -2.28465,6.16097 h -3.61047 l -2.29103,-6.16097 c -1.25936,-3.38583 -2.70547,-7.43619 -3.21176,-8.99621 -1.38282,-4.24021 -1.49356,-4.15478 -0.84804,0.65503 0.12973,0.95878 0.28478,5.20216 0.34807,9.42972 l 0.11392,7.68934 h -2.93334 c -1.61382,0 -2.99663,-0.0632 -3.07574,-0.14556 z m 30.87442,-0.12658 c 0.0538,-0.15188 2.14226,-6.82548 4.64525,-14.83442 l 4.55032,-14.56226 4.05036,0.057 4.04402,0.0634 4.51552,14.39141 c 2.48399,7.91714 4.51868,14.56859 4.525,14.7806 0,0.35757 -0.25315,0.38288 -3.42381,0.32908 l -3.43648,-0.0633 -0.69614,-2.61376 -0.93666,-3.55038 -0.24049,-0.93031 -4.51234,0.0602 -4.51235,0.057 -0.78476,2.94283 c -0.43352,1.62014 -0.85437,3.21497 -0.93665,3.54406 l -0.14872,0.60123 h -3.39849 c -2.62641,0 -3.37635,-0.0634 -3.30358,-0.27214 z m 14.6952,-18.25191 c -0.85437,-3.35416 -1.61065,-6.02804 -1.68343,-5.94579 -0.076,0.0854 -0.4525,1.52524 -0.83855,3.20547 -0.38606,1.6771 -1.03475,4.3067 -1.44611,5.84141 -0.40819,1.5315 -0.74361,2.83205 -0.74361,2.889 0,0.057 1.40812,0.10445 3.13269,0.10445 h 3.12637 z m 15.13503,3.69279 v -14.82806 h 6.54382 v 11.34096 h 10.25247 v -11.34096 h 6.76218 l -0.0569,14.77429 -0.057,14.77743 -3.32572,0.0602 -3.32571,0.0602 v -12.44535 h -10.25246 v 12.43269 h -6.54069 z M 169.71465,123.3357 c -11.51188,-1.86063 -19.36573,-9.38226 -21.73902,-20.81818 -0.63283,-3.047266 -0.79105,-9.958185 -0.30694,-13.258591 0.59347,-4.251255 2.05856,-8.334138 4.30347,-11.992811 1.58533,-2.572608 5.30343,-6.287544 7.88236,-7.879206 6.23376,-3.838343 14.3756,-5.12623 21.49219,-3.392171 2.93018,0.71514 7.44253,3.202311 10.14489,5.594551 l 1.05688,0.93348 -3.32571,4.069341 -3.32257,4.069309 -1.55052,-1.151788 c -2.96182,-2.20238 -4.30983,-2.794112 -7.22735,-3.183325 -1.23479,-0.183216 -2.48992,-0.182267 -3.72443,0.0032 -8.84749,1.177166 -13.83766,9.081654 -12.95796,20.511245 0.674,8.733576 4.34147,13.840836 11.06569,15.410336 3.48393,0.81324 8.02476,0.45566 10.04677,-0.79108 l 0.71198,-0.44301 -0.0601,-4.85409 -0.0602,-4.85094 -4.63579,-0.0632 -4.63256,-0.057 V 90.951916 h 20.49855 v 26.137444 l -1.77202,1.33852 c -2.75298,2.07264 -6.70838,3.83517 -10.54992,4.69905 -2.19921,0.49676 -8.80315,0.61701 -11.34095,0.20567 z m 35.58616,-0.68666 c -0.0791,-0.0823 -0.14556,-12.79026 -0.14556,-28.244893 V 66.304846 h 35.33298 v 10.689138 h -22.46681 v 11.340958 h 19.19488 v 10.685975 h -19.19172 v 12.869373 h 23.33385 v 10.90431 h -17.95764 c -9.87274,0 -18.02091,-0.0664 -18.09998,-0.14556 z M 249.86416,94.429463 V 66.282695 l 12.70482,0.07595 c 12.24914,0.07278 12.79024,0.09492 15.10336,0.575878 6.56601,1.370191 10.83787,4.525005 12.94215,9.556304 1.39864,3.354201 1.63597,8.809522 0.56325,13.018088 -1.02841,4.028203 -4.29084,8.08172 -7.95515,9.872737 -0.70247,0.341749 -1.27839,0.677158 -1.28471,0.749948 0,0.095 9.37593,16.76151 12.11941,21.51751 l 0.53794,0.92714 -7.1514,-0.006 -7.15458,-0.006 -5.34457,-10.08157 -5.3414,-10.08156 -3.54406,-0.0602 -3.54404,-0.0602 v 20.29292 H 249.86416 V 94.425277 Z m 23.47937,-2.667538 c 3.99023,-1.148655 5.9806,-3.733921 6.01541,-7.796901 0.0316,-3.13586 -0.88602,-4.980703 -3.0441,-6.154641 -2.022,-1.098025 -3.24661,-1.297378 -8.73038,-1.41446 l -5.06928,-0.107585 v 16.024186 l 4.85091,-0.113921 c 3.3447,-0.07597 5.20217,-0.21201 5.98061,-0.436678 z m 25.85265,30.545375 c 0.0538,-0.15191 4.00922,-12.81558 8.79687,-28.137317 l 8.70193,-27.861974 h 7.69567 c 4.23386,0 7.69564,0.03797 7.69564,0.08227 0,0.0443 3.87949,12.486483 8.62282,27.64364 4.74335,15.157181 8.6798,27.782901 8.74941,28.055021 l 0.12657,0.49365 -6.72422,-0.057 -6.72739,-0.057 -1.55053,-5.99959 c -0.85436,-3.29724 -1.61696,-6.26538 -1.69924,-6.60081 l -0.15189,-0.60123 -8.64498,0.057 -8.6481,0.057 -1.67394,6.54386 -1.67393,6.54385 -6.49323,0.057 c -5.15787,0.0443 -6.47423,0 -6.40146,-0.2215 z m 30.84595,-23.447761 c -0.41452,-1.449267 -2.22769,-8.553207 -3.84148,-15.059092 -1.78156,-7.173526 -2.05052,-8.1165 -2.26567,-7.879173 -0.0442,0.05063 -0.7911,3.132663 -1.65813,6.850795 -0.90312,3.864608 -1.85776,7.717 -2.86374,11.556131 -0.70562,2.635898 -1.28468,4.819284 -1.28468,4.850935 0,0.03162 2.70551,0.06016 6.01221,0.06016 5.62302,0 6.00591,-0.02536 5.90149,-0.379713 z M 354.76828,94.44212 V 66.308009 h 12.65103 v 11.559332 c 0,6.357159 0.0728,11.552978 0.16454,11.549804 0.0917,-0.0034 3.92695,-5.205334 8.5279,-11.559296 l 8.36967,-11.54984 h 6.96468 c 5.3161,0 6.9299,0.06013 6.80966,0.256312 -0.0886,0.142395 -3.82885,5.097751 -8.30954,11.011901 -4.48071,5.917315 -8.19562,10.88846 -8.2589,11.049838 -0.0602,0.158217 4.35725,7.812755 9.82207,17.00516 5.46165,9.18925 9.93603,16.76467 9.93603,16.83112 0,0.0633 -3.11687,0.095 -6.92041,0.0633 l -6.91726,-0.0601 -6.7685,-11.71755 c -3.72124,-6.44575 -6.83495,-11.695401 -6.92039,-11.666924 -0.0823,0.02843 -1.58217,1.930264 -3.32256,4.230734 l -3.17699,4.18326 v 15.08123 H 354.77145 V 94.44203 Z"
       style="fill:#1a1a1a;stroke-width:3.16433764"
       inkscape:connector-curvature="0" />
  </g>
</svg>
